<svg width="191" height="191" viewBox="0 0 191 191" fill="none" xmlns="http://www.w3.org/2000/svg">
<path d="M0.0527344 64.2956C0.0527344 41.893 0.0527344 30.6916 4.41258 22.135C8.24761 14.6083 14.367 8.48891 21.8937 4.65388C30.4503 0.294037 41.6517 0.294037 64.0543 0.294037H126.051C148.454 0.294037 159.655 0.294037 168.212 4.65388C175.738 8.48891 181.858 14.6083 185.693 22.135C190.053 30.6916 190.053 41.893 190.053 64.2956V126.292C190.053 148.695 190.053 159.896 185.693 168.453C181.858 175.98 175.738 182.099 168.212 185.934C159.655 190.294 148.454 190.294 126.051 190.294H64.0543C41.6517 190.294 30.4503 190.294 21.8937 185.934C14.367 182.099 8.24761 175.98 4.41258 168.453C0.0527344 159.896 0.0527344 148.695 0.0527344 126.292V64.2956Z" fill="url(#paint0_radial_215_598)"/>
<path fill-rule="evenodd" clip-rule="evenodd" d="M160.081 76.5933C161.405 74.6511 162.112 72.6206 162.112 70.3252C162.112 65.0283 157.433 60.879 152.312 60.879C148.58 60.879 146.539 62.8955 144.418 64.9913C142.123 67.2587 139.734 69.619 135.009 69.619C128.652 69.619 123.62 64.4103 123.62 58.1422C123.62 51.6976 128.652 46.5772 135.097 46.5772C139.998 46.5772 142.285 49.0016 144.486 51.3344C146.526 53.4976 148.493 55.582 152.4 55.582C157.786 55.582 162.112 51.4328 162.112 45.9592C162.112 41.1037 158.58 37.131 155.049 34.3059C149.311 29.7153 142.689 27.1551 135.362 27.1551C118.147 27.1551 104.11 40.9271 104.11 58.1422C104.11 75.3573 118.235 88.9529 135.274 88.9529C144.455 88.9529 154.872 84.3622 160.081 76.5933ZM83.7371 160.433C88.8774 160.433 92.9897 156.492 92.9897 151.266C92.9897 150.238 92.904 149.124 92.7327 148.096L86.1359 111.257C85.7076 108.858 85.1079 106.717 83.2231 105.003C81.5096 103.461 79.0252 102.433 76.712 102.433C73.2851 102.433 69.8582 104.403 68.4018 107.488L59.7964 125.784C59.4425 126.536 58.3681 126.524 58.0311 125.764L50.4964 108.773C48.8686 105.003 45.099 102.433 40.9868 102.433C35.6751 102.433 32.5909 106.374 31.7342 111.257L25.3088 147.839C25.1374 148.61 25.0518 149.381 25.0518 150.152C25.0518 155.892 28.65 160.433 34.647 160.433H45.931H58.8922H83.2231H83.7371ZM78.1902 88.3051C83.5523 88.3051 88.0208 84.0154 88.0208 78.564C88.0208 76.9553 87.6633 75.3467 86.9483 73.8275L68.0916 33.7905C66.3936 30.1264 62.9976 27.8028 58.8867 27.8028C54.8651 27.8028 51.5585 30.1264 49.8605 33.7011L31.1825 73.2912C30.3782 74.8999 30.0208 76.6872 30.0208 78.4746C30.0208 83.9261 34.2211 88.3051 39.7619 88.3051C43.0746 88.3051 48.5595 87.0593 52.8553 85.0451C55.6099 83.7535 62.229 83.6978 64.9813 84.9945C69.285 87.0223 74.7639 88.3051 78.1902 88.3051ZM135.053 161.433C151.622 161.433 165.053 148.002 165.053 131.433C165.053 114.864 151.622 101.433 135.053 101.433C118.485 101.433 105.053 114.864 105.053 131.433C105.053 148.002 118.485 161.433 135.053 161.433Z" fill="url(#paint1_linear_215_598)"/>
<g filter="url(#filter0_d_215_598)">
<path fill-rule="evenodd" clip-rule="evenodd" d="M134.997 149.908C137.847 149.908 140.497 149.258 142.947 147.958C145.397 146.658 147.347 144.883 148.797 142.633C149.197 142.033 149.247 141.445 148.947 140.87C148.647 140.295 148.137 140.008 147.417 140.008C147.137 140.008 146.822 140.108 146.472 140.308C146.122 140.508 145.847 140.733 145.647 140.983C144.447 142.683 142.91 143.983 141.035 144.883C139.16 145.783 137.16 146.233 135.035 146.233C132.91 146.233 130.897 145.795 128.997 144.92C127.097 144.045 125.572 142.758 124.422 141.058C124.243 140.758 123.986 140.508 123.651 140.308C123.315 140.108 122.972 140.008 122.622 140.008C121.972 140.008 121.485 140.295 121.16 140.87C120.835 141.445 120.922 142.108 121.422 142.858C122.772 144.958 124.66 146.658 127.085 147.958C129.51 149.258 132.147 149.908 134.997 149.908Z" fill="#1F2020"/>
</g>
<defs>
<filter id="filter0_d_215_598" x="116.968" y="138.008" width="36.1724" height="17.9" filterUnits="userSpaceOnUse" color-interpolation-filters="sRGB">
<feFlood flood-opacity="0" result="BackgroundImageFix"/>
<feColorMatrix in="SourceAlpha" type="matrix" values="0 0 0 0 0 0 0 0 0 0 0 0 0 0 0 0 0 0 127 0" result="hardAlpha"/>
<feOffset dy="2"/>
<feGaussianBlur stdDeviation="2"/>
<feComposite in2="hardAlpha" operator="out"/>
<feColorMatrix type="matrix" values="0 0 0 0 0 0 0 0 0 0 0 0 0 0 0 0 0 0 0.25 0"/>
<feBlend mode="normal" in2="BackgroundImageFix" result="effect1_dropShadow_215_598"/>
<feBlend mode="normal" in="SourceGraphic" in2="effect1_dropShadow_215_598" result="shape"/>
</filter>
<radialGradient id="paint0_radial_215_598" cx="0" cy="0" r="1" gradientUnits="userSpaceOnUse" gradientTransform="translate(95.0527 -63.4513) rotate(90) scale(190)">
<stop stop-color="#122F33"/>
<stop offset="1" stop-color="#1F1F1F"/>
</radialGradient>
<linearGradient id="paint1_linear_215_598" x1="165.053" y1="157.188" x2="19.6186" y2="27.0612" gradientUnits="userSpaceOnUse">
<stop stop-color="#0774C4"/>
<stop offset="1" stop-color="#47DC9B"/>
</linearGradient>
</defs>
</svg>
